<?xml version="1.0" encoding="utf-8" ?>
<svg xmlns="http://www.w3.org/2000/svg" xmlns:xlink="http://www.w3.org/1999/xlink" width="828" height="465">
	<path fill="#7790ED" transform="matrix(1.29444 0 0 1.29444 0 -181.221)" d="M351.578 194.516C363.923 193.892 375.384 194.826 387.175 198.732C413.475 207.444 434.104 229.051 446.295 253.417C463.925 288.653 466.167 331.528 453.665 368.789C444.15 397.146 424.657 423.753 397.369 437.148C376.977 447.158 352.895 448.31 331.489 440.921C313.271 434.632 300.157 423.406 288.077 408.748C284.548 404.466 280.783 399.854 278.341 394.852C280.358 396.346 284.293 402.365 286.42 404.766C296.024 415.607 308.909 423.908 322.418 428.932C339.743 434.753 357.317 434.597 374.39 427.789C398.849 418.035 417.133 397.031 427.375 373.187C441.403 340.528 441.82 302.481 428.584 269.497C418.852 245.243 400.709 223.153 376.248 212.817C344.397 199.357 310.739 209.806 287.61 234.245C285.85 236.105 277.157 247.057 277.108 247.077L277.294 246.577L277.411 246.915C277.215 244.587 285.74 233.757 287.729 231.251C303.74 211.084 325.749 197.451 351.578 194.516Z"/>
	<path fill="#7790ED" transform="matrix(1.29444 0 0 1.29444 0 -181.221)" d="M178.784 252.114C188.401 251.875 198.112 252.167 207.739 252.146L283.436 252.183L335.531 252.177C344.665 252.172 353.911 251.822 363.028 252.254C356.986 263.331 350.339 274.284 343.518 284.895C326.345 284.58 309.138 284.788 291.961 284.785C281.203 284.784 270.18 284.277 259.453 284.918C258.668 284.931 257.895 284.966 257.113 285.021L256.758 285.437C255.971 304.736 256.767 324.743 256.676 344.161L256.515 371.062C256.479 376.636 256.162 382.422 256.751 387.963C244.348 388.236 231.897 387.985 219.488 388.041C219.106 353.728 219.149 319.319 219.476 285.004C205.949 284.715 192.285 284.381 178.765 285.008C178.135 274.21 178.286 262.92 178.784 252.114Z"/>
	<path fill="#7790ED" transform="matrix(1.29444 0 0 1.29444 0 -181.221)" d="M373.867 252.053C387.115 251.937 400.358 252.17 413.606 251.89C413.611 256.908 413.63 261.924 413.444 266.939C413.472 268.126 413.515 269.308 413.439 270.494C413.679 279.815 413.425 289.183 413.455 298.512C413.471 303.584 414.016 309.589 413.443 314.523C414.135 339.016 413.587 363.652 413.614 388.162C401.196 387.691 388.712 387.95 376.287 388.043C376.117 371.239 376.294 354.418 376.29 337.612C376.288 328.464 376.411 319.285 375.972 310.147C371.841 317.082 366.959 323.775 362.537 330.548C355.354 341.552 348.382 352.723 340.972 363.572C336.892 357.786 333.14 351.701 329.267 345.771L305.861 310.02C305.918 316.325 305.567 322.67 305.536 328.985L305.618 387.957L269.248 388.081L269.359 296.87C291.538 296.46 313.842 296.686 336.026 296.924C337.944 299.592 339.694 302.315 341.327 305.166C345.59 297.396 350.459 289.879 355.073 282.306C361.232 272.197 367.323 261.913 373.867 252.053ZM412.527 263.109C412.249 281.945 412.315 300.801 412.495 319.638C412.548 325.231 413.602 347.241 412.556 350.978L412.893 351.465C412.895 351.389 412.892 351.312 412.898 351.236C412.907 351.116 412.925 350.996 412.937 350.877C413.274 347.534 413.025 344.04 412.997 340.674L412.982 324.23C412.992 321.101 412.743 317.575 413.443 314.523C414.016 309.589 413.471 303.584 413.455 298.512C413.425 289.183 413.679 279.815 413.439 270.494C412.709 268.261 412.754 265.46 412.527 263.109ZM412.527 263.109C412.754 265.46 412.709 268.261 413.439 270.494C413.515 269.308 413.472 268.126 413.444 266.939C412.728 263.388 413.844 254.986 412.655 252.589L412.773 253.442C412.019 254.764 412.399 261.259 412.527 263.109Z"/>
	<path fill="#7790ED" fill-opacity="0.96862745" transform="matrix(1.29444 0 0 1.29444 0 -181.221)" d="M412.527 263.109C412.399 261.259 412.019 254.764 412.773 253.442L412.655 252.589C413.844 254.986 412.728 263.388 413.444 266.939C413.472 268.126 413.515 269.308 413.439 270.494C412.709 268.261 412.754 265.46 412.527 263.109Z"/>
	<path fill="#7790ED" fill-opacity="0.94509804" transform="matrix(1.29444 0 0 1.29444 0 -181.221)" d="M412.527 263.109C412.754 265.46 412.709 268.261 413.439 270.494C413.679 279.815 413.425 289.183 413.455 298.512C413.471 303.584 414.016 309.589 413.443 314.523C412.743 317.575 412.992 321.101 412.982 324.23L412.997 340.674C413.025 344.04 413.274 347.534 412.937 350.877C412.925 350.996 412.907 351.116 412.898 351.236C412.892 351.312 412.895 351.389 412.893 351.465L412.556 350.978C413.602 347.241 412.548 325.231 412.495 319.638C412.315 300.801 412.249 281.945 412.527 263.109Z"/>
</svg>
